<?xml version="1.0" standalone="no"?>
<!DOCTYPE svg PUBLIC "-//W3C//DTD SVG 20010904//EN"
 "http://www.w3.org/TR/2001/REC-SVG-20010904/DTD/svg10.dtd">
<svg version="1.0" xmlns="http://www.w3.org/2000/svg"
 width="240.000000pt" height="192.000000pt" viewBox="0 0 240.000000 192.000000"
 preserveAspectRatio="xMidYMid meet">
<metadata>
Created by potrace 1.10, written by Peter Selinger 2001-2011
</metadata>
<g transform="translate(0.000000,192.000000) scale(0.100000,-0.100000)"
fill="#000000" stroke="none">
<path d="M919 1887 c-53 -35 -79 -96 -79 -189 l0 -78 60 0 60 0 0 73 c0 110
-6 107 242 107 245 0 238 3 238 -108 l0 -72 60 0 60 0 0 78 c0 61 -5 87 -22
122 -27 52 -78 90 -122 90 l-31 -1 27 -22 c15 -12 41 -32 58 -45 34 -27 53
-80 48 -137 -2 -27 -8 -40 -18 -40 -11 0 -17 15 -20 50 -7 57 -21 87 -52 109
-19 13 -58 16 -228 16 -170 0 -209 -3 -228 -16 -31 -22 -45 -52 -52 -109 -3
-35 -9 -50 -20 -50 -10 0 -16 13 -18 40 -5 57 14 110 48 137 17 13 43 33 58
45 l27 22 -31 1 c-17 0 -46 -10 -65 -23z"/>
<path d="M160 1587 c-50 -16 -137 -105 -145 -150 -14 -72 -1 -74 36 -7 46 85
100 120 193 127 35 3 76 3 90 -1 l26 -6 0 -775 c0 -768 0 -775 20 -775 20 0
20 7 20 800 l0 800 -102 -1 c-57 -1 -119 -6 -138 -12z"/>
<path d="M480 800 c0 -793 0 -800 20 -800 20 0 20 8 22 778 l3 777 655 3 c360
1 665 0 678 -3 l22 -5 0 -775 c0 -768 0 -775 20 -775 20 0 20 7 20 800 l0 800
-720 0 -720 0 0 -800z"/>
<path d="M2000 800 c0 -793 0 -800 20 -800 20 0 20 8 22 778 l3 777 85 0 c116
-1 156 -23 213 -120 43 -72 56 -72 42 2 -9 48 -95 134 -151 151 -23 7 -85 12
-138 12 l-96 0 0 -800z"/>
<path d="M10 199 c0 -93 123 -205 207 -187 13 3 4 11 -33 31 -65 33 -108 76
-140 138 -13 27 -27 49 -29 49 -3 0 -5 -14 -5 -31z"/>
<path d="M2374 219 c-6 -8 -22 -34 -34 -58 -27 -54 -60 -85 -125 -119 -36 -19
-45 -27 -32 -30 46 -10 90 10 143 62 51 52 71 97 62 142 -2 14 -5 15 -14 3z"/>
</g>
</svg>
